<svg width="1100" height="420" viewBox="0 0 1100 420" fill="none" xmlns="http://www.w3.org/2000/svg" role="img"
     aria-labelledby="title desc">
  <title id="title">zioncode hero banner</title>
  <desc id="desc">A dark banner with the zioncode mountain logo, codec pipeline labels, and mint green signal
    accents.
  </desc>
  <defs>
    <radialGradient id="glow" cx="0" cy="0" r="1" gradientUnits="userSpaceOnUse"
                    gradientTransform="translate(190 96) rotate(49) scale(430 610)">
      <stop stop-color="#bdf4c5" stop-opacity="0.44"/>
      <stop offset="0.44" stop-color="#92e7e5" stop-opacity="0.18"/>
      <stop offset="1" stop-color="#030504" stop-opacity="0"/>
    </radialGradient>
    <linearGradient id="mint" x1="42" y1="22" x2="424" y2="405" gradientUnits="userSpaceOnUse">
      <stop stop-color="#8ee7e7"/>
      <stop offset="0.55" stop-color="#bff6c6"/>
      <stop offset="1" stop-color="#d8f98e"/>
    </linearGradient>
    <linearGradient id="panel" x1="468" y1="76" x2="1007" y2="348" gradientUnits="userSpaceOnUse">
      <stop stop-color="#11231f" stop-opacity="0.92"/>
      <stop offset="1" stop-color="#07100e" stop-opacity="0.96"/>
    </linearGradient>
    <filter id="softShadow" x="-20%" y="-20%" width="140%" height="140%" color-interpolation-filters="sRGB">
      <feDropShadow dx="0" dy="22" stdDeviation="24" flood-color="#000000" flood-opacity="0.48"/>
    </filter>
    <clipPath id="markClip">
      <circle cx="220" cy="210" r="141"/>
    </clipPath>
  </defs>

  <rect width="1100" height="420" rx="34" fill="#030504"/>
  <rect width="1100" height="420" rx="34" fill="url(#glow)"/>
  <path d="M33 341C157 269 196 407 330 330C481 243 515 310 633 245C772 168 841 254 1034 120" stroke="#9ee7d8"
        stroke-opacity="0.09" stroke-width="2"/>
  <path d="M70 76H1014" stroke="#c7f9b8" stroke-opacity="0.07"/>
  <path d="M70 346H1014" stroke="#c7f9b8" stroke-opacity="0.07"/>

  <g filter="url(#softShadow)">
    <circle cx="220" cy="210" r="167" fill="#050a08"/>
    <g clip-path="url(#markClip)">
      <rect x="78" y="68" width="284" height="284" fill="#020403"/>
      <path fill="url(#mint)"
            d="M220 116 153 217 97 272c23 48 71 81 126 81 23 0 45-6 64-15l-54-56 63 15-56-105-12-50 20 52 18-25h21l23 54 35 37c9-18 14-39 14-60 0-71-57-128-128-128-49 0-92 28-114 68 22-46 59-76 103-76 77 0 140 63 140 140 0 27-8 52-21 74l-51-53-18-44v37l-21-49-18-1-11-52Z"/>
    </g>
    <circle cx="220" cy="210" r="144" stroke="url(#mint)" stroke-width="18"/>
    <path d="M199 84c7-1 15-2 23-2 71 0 129 58 129 129 0 24-6 45-17 64" stroke="url(#mint)" stroke-width="4"
          stroke-linecap="round"/>
  </g>

  <g filter="url(#softShadow)">
    <rect x="468" y="76" width="560" height="268" rx="26" fill="url(#panel)" stroke="#9ee7d8"
          stroke-opacity="0.18"/>
    <text x="510" y="148" fill="#f3fff8" font-family="Inter, ui-sans-serif, system-ui, sans-serif" font-size="58"
          font-weight="800" letter-spacing="-2">zioncode
    </text>
    <text x="514" y="188" fill="#9ee7d8" font-family="ui-monospace, SFMono-Regular, Menlo, Consolas, monospace"
          font-size="18" letter-spacing="2">AIR-GAP FILE CODEC
    </text>
    <text x="514" y="235" fill="#dfffea" font-family="Inter, ui-sans-serif, system-ui, sans-serif" font-size="22">
      Compress. Protect. Interleave. Reassemble.
    </text>
    <text x="514" y="270" fill="#aebdb7" font-family="Inter, ui-sans-serif, system-ui, sans-serif" font-size="16">A
      deterministic byte-level transport layer for hostile offline paths.
    </text>

    <g font-family="ui-monospace, SFMono-Regular, Menlo, Consolas, monospace" font-size="15" font-weight="700">
      <rect x="514" y="300" width="86" height="31" rx="15.5" fill="#c7f9b8" fill-opacity="0.13" stroke="#c7f9b8"
            stroke-opacity="0.33"/>
      <text x="535" y="321" fill="#c7f9b8">zstd</text>
      <rect x="612" y="300" width="73" height="31" rx="15.5" fill="#9ee7d8" fill-opacity="0.13" stroke="#9ee7d8"
            stroke-opacity="0.33"/>
      <text x="635" y="321" fill="#9ee7d8">ECC</text>
      <rect x="697" y="300" width="95" height="31" rx="15.5" fill="#c7f9b8" fill-opacity="0.13" stroke="#c7f9b8"
            stroke-opacity="0.33"/>
      <text x="719" y="321" fill="#c7f9b8">CRC32C</text>
      <rect x="804" y="300" width="92" height="31" rx="15.5" fill="#9ee7d8" fill-opacity="0.13" stroke="#9ee7d8"
            stroke-opacity="0.33"/>
      <text x="826" y="321" fill="#9ee7d8">BLAKE3</text>
    </g>
  </g>
</svg>
